<svg width="135" height="48" viewBox="0 0 135 48" fill="none" xmlns="http://www.w3.org/2000/svg">
<path d="M22.957 6.24219H16.2422V20H13.1953V6.24219H6.46875V3.19531H22.957V6.24219ZM34.5469 10.3789H27.6914C27.2773 10.3789 26.9648 10.4844 26.7539 10.6953C26.543 10.8984 26.4375 11.1992 26.4375 11.5977V20H23.3906V11.5977C23.3906 11.0742 23.457 10.6055 23.5898 10.1914C23.7227 9.77734 23.8984 9.41406 24.1172 9.10156C24.3438 8.78125 24.6016 8.51172 24.8906 8.29297C25.1797 8.06641 25.4805 7.88281 25.793 7.74219C26.1133 7.60156 26.4336 7.5 26.7539 7.4375C27.082 7.36719 27.3867 7.33203 27.668 7.33203H34.5469V10.3789ZM48.6562 15.8047C48.6562 16.2266 48.582 16.6836 48.4336 17.1758C48.2852 17.6602 48.043 18.1133 47.707 18.5352C47.3789 18.9492 46.9453 19.2969 46.4062 19.5781C45.875 19.8594 45.2266 20 44.4609 20H38.9648C38.543 20 38.0859 19.9258 37.5938 19.7773C37.1094 19.6289 36.6562 19.3906 36.2344 19.0625C35.8203 18.7266 35.4727 18.293 35.1914 17.7617C34.9102 17.2227 34.7695 16.5703 34.7695 15.8047C34.7695 15.3828 34.8438 14.9258 34.9922 14.4336C35.1406 13.9414 35.3789 13.4883 35.707 13.0742C36.043 12.6523 36.4766 12.3008 37.0078 12.0195C37.5469 11.7383 38.1992 11.5977 38.9648 11.5977H44.4609V14.5039H38.9648C38.5508 14.5039 38.2305 14.6328 38.0039 14.8906C37.7773 15.1406 37.6641 15.4531 37.6641 15.8281C37.6641 16.2266 37.793 16.5391 38.0508 16.7656C38.3164 16.9844 38.6289 17.0938 38.9883 17.0938H44.4609C44.875 17.0938 45.1953 16.9688 45.4219 16.7188C45.6484 16.4688 45.7617 16.1562 45.7617 15.7812V11.5273C45.7617 11.1289 45.6367 10.8125 45.3867 10.5781C45.1445 10.3438 44.8359 10.2266 44.4609 10.2266H37.7695V7.33203H44.4609C44.8828 7.33203 45.3359 7.40625 45.8203 7.55469C46.3125 7.70313 46.7656 7.94531 47.1797 8.28125C47.6016 8.60938 47.9531 9.04297 48.2344 9.58203C48.5156 10.1133 48.6562 10.7617 48.6562 11.5273V15.8047ZM54.3516 4.73047H51.3047V1.97656H54.3516V4.73047ZM54.3516 20H51.3047V7.33203H54.3516V20ZM71.3203 20H68.2734V12.9688C68.2734 12.5703 68.2031 12.2148 68.0625 11.9023C67.9297 11.582 67.7461 11.3086 67.5117 11.082C67.2773 10.8555 67 10.6836 66.6797 10.5664C66.3672 10.4414 66.0273 10.3789 65.6602 10.3789H60.3281V20H57.2812V8.84375C57.2812 8.63281 57.3203 8.4375 57.3984 8.25781C57.4766 8.07031 57.5859 7.91016 57.7266 7.77734C57.8672 7.63672 58.0312 7.52734 58.2188 7.44922C58.4062 7.37109 58.6055 7.33203 58.8164 7.33203H65.6836C66.0664 7.33203 66.4688 7.375 66.8906 7.46094C67.3203 7.54687 67.7422 7.6875 68.1562 7.88281C68.5781 8.07031 68.9766 8.3125 69.3516 8.60938C69.7344 8.89844 70.0703 9.25391 70.3594 9.67578C70.6562 10.0898 70.8906 10.5703 71.0625 11.1172C71.2344 11.6641 71.3203 12.2812 71.3203 12.9688V20ZM88.0312 20H84.9844V12.9688C84.9844 12.5703 84.9141 12.2148 84.7734 11.9023C84.6406 11.582 84.457 11.3086 84.2227 11.082C83.9883 10.8555 83.7109 10.6836 83.3906 10.5664C83.0781 10.4414 82.7383 10.3789 82.3711 10.3789H77.0391V20H73.9922V8.84375C73.9922 8.63281 74.0312 8.4375 74.1094 8.25781C74.1875 8.07031 74.2969 7.91016 74.4375 7.77734C74.5781 7.63672 74.7422 7.52734 74.9297 7.44922C75.1172 7.37109 75.3164 7.33203 75.5273 7.33203H82.3945C82.7773 7.33203 83.1797 7.375 83.6016 7.46094C84.0312 7.54687 84.4531 7.6875 84.8672 7.88281C85.2891 8.07031 85.6875 8.3125 86.0625 8.60938C86.4453 8.89844 86.7812 9.25391 87.0703 9.67578C87.3672 10.0898 87.6016 10.5703 87.7734 11.1172C87.9453 11.6641 88.0312 12.2812 88.0312 12.9688V20ZM93.7969 4.73047H90.75V1.97656H93.7969V4.73047ZM93.7969 20H90.75V7.33203H93.7969V20ZM110.766 20H107.719V12.9688C107.719 12.5703 107.648 12.2148 107.508 11.9023C107.375 11.582 107.191 11.3086 106.957 11.082C106.723 10.8555 106.445 10.6836 106.125 10.5664C105.812 10.4414 105.473 10.3789 105.105 10.3789H99.7734V20H96.7266V8.84375C96.7266 8.63281 96.7656 8.4375 96.8438 8.25781C96.9219 8.07031 97.0312 7.91016 97.1719 7.77734C97.3125 7.63672 97.4766 7.52734 97.6641 7.44922C97.8516 7.37109 98.0508 7.33203 98.2617 7.33203H105.129C105.512 7.33203 105.914 7.375 106.336 7.46094C106.766 7.54687 107.188 7.6875 107.602 7.88281C108.023 8.07031 108.422 8.3125 108.797 8.60938C109.18 8.89844 109.516 9.25391 109.805 9.67578C110.102 10.0898 110.336 10.5703 110.508 11.1172C110.68 11.6641 110.766 12.2812 110.766 12.9688V20ZM127.219 21.2188C127.219 21.7422 127.152 22.2109 127.02 22.625C126.887 23.0469 126.711 23.4141 126.492 23.7266C126.273 24.0469 126.02 24.3164 125.73 24.5352C125.441 24.7617 125.137 24.9453 124.816 25.0859C124.504 25.2266 124.184 25.3281 123.855 25.3906C123.535 25.4609 123.23 25.4961 122.941 25.4961H117.445V22.4492H122.941C123.355 22.4492 123.664 22.3438 123.867 22.1328C124.07 21.9219 124.172 21.6172 124.172 21.2188V11.5977C124.172 11.1992 124.07 10.8984 123.867 10.6953C123.664 10.4844 123.355 10.3789 122.941 10.3789H117.445C117.07 10.3789 116.773 10.4961 116.555 10.7305C116.336 10.957 116.227 11.2461 116.227 11.5977V15.7227C116.227 16.1211 116.332 16.4258 116.543 16.6367C116.754 16.8477 117.062 16.9531 117.469 16.9531H122.941V20H117.445C117.156 20 116.852 19.9688 116.531 19.9062C116.211 19.8359 115.891 19.7305 115.57 19.5898C115.258 19.4492 114.957 19.2695 114.668 19.0508C114.379 18.8242 114.125 18.5547 113.906 18.2422C113.688 17.9219 113.512 17.5547 113.379 17.1406C113.246 16.7188 113.18 16.2461 113.18 15.7227V11.5977C113.18 11.3086 113.211 11.0039 113.273 10.6836C113.344 10.3633 113.449 10.0469 113.59 9.73438C113.73 9.41406 113.91 9.10938 114.129 8.82031C114.355 8.53125 114.625 8.27734 114.938 8.05859C115.258 7.83984 115.625 7.66406 116.039 7.53125C116.453 7.39844 116.922 7.33203 117.445 7.33203H122.941C123.23 7.33203 123.535 7.36719 123.855 7.4375C124.184 7.5 124.504 7.60156 124.816 7.74219C125.137 7.88281 125.441 8.06641 125.73 8.29297C126.02 8.51172 126.273 8.78125 126.492 9.10156C126.711 9.41406 126.887 9.77734 127.02 10.1914C127.152 10.6055 127.219 11.0742 127.219 11.5977V21.2188Z" fill="url(#paint0_linear_204_4218)"/>
<path d="M9 27V45H27" stroke="url(#paint1_linear_204_4218)" stroke-width="2" stroke-linecap="round" stroke-linejoin="round"/>
<path d="M24 41V33" stroke="url(#paint2_linear_204_4218)" stroke-width="2" stroke-linecap="round" stroke-linejoin="round"/>
<path d="M19 41V29" stroke="url(#paint3_linear_204_4218)" stroke-width="2" stroke-linecap="round" stroke-linejoin="round"/>
<path d="M14 41V38" stroke="url(#paint4_linear_204_4218)" stroke-width="2" stroke-linecap="round" stroke-linejoin="round"/>
<path d="M50.957 30.2422H44.2422V44H41.1953V30.2422H34.4688V27.1953H50.957V30.2422ZM62.5469 34.3789H55.6914C55.2773 34.3789 54.9648 34.4844 54.7539 34.6953C54.543 34.8984 54.4375 35.1992 54.4375 35.5977V44H51.3906V35.5977C51.3906 35.0742 51.457 34.6055 51.5898 34.1914C51.7227 33.7773 51.8984 33.4141 52.1172 33.1016C52.3438 32.7812 52.6016 32.5117 52.8906 32.293C53.1797 32.0664 53.4805 31.8828 53.793 31.7422C54.1133 31.6016 54.4336 31.5 54.7539 31.4375C55.082 31.3672 55.3867 31.332 55.668 31.332H62.5469V34.3789ZM76.6562 39.8047C76.6562 40.2266 76.582 40.6836 76.4336 41.1758C76.2852 41.6602 76.043 42.1133 75.707 42.5352C75.3789 42.9492 74.9453 43.2969 74.4062 43.5781C73.875 43.8594 73.2266 44 72.4609 44H66.9648C66.543 44 66.0859 43.9258 65.5938 43.7773C65.1094 43.6289 64.6562 43.3906 64.2344 43.0625C63.8203 42.7266 63.4727 42.293 63.1914 41.7617C62.9102 41.2227 62.7695 40.5703 62.7695 39.8047C62.7695 39.3828 62.8438 38.9258 62.9922 38.4336C63.1406 37.9414 63.3789 37.4883 63.707 37.0742C64.043 36.6523 64.4766 36.3008 65.0078 36.0195C65.5469 35.7383 66.1992 35.5977 66.9648 35.5977H72.4609V38.5039H66.9648C66.5508 38.5039 66.2305 38.6328 66.0039 38.8906C65.7773 39.1406 65.6641 39.4531 65.6641 39.8281C65.6641 40.2266 65.793 40.5391 66.0508 40.7656C66.3164 40.9844 66.6289 41.0938 66.9883 41.0938H72.4609C72.875 41.0938 73.1953 40.9688 73.4219 40.7188C73.6484 40.4688 73.7617 40.1562 73.7617 39.7812V35.5273C73.7617 35.1289 73.6367 34.8125 73.3867 34.5781C73.1445 34.3438 72.8359 34.2266 72.4609 34.2266H65.7695V31.332H72.4609C72.8828 31.332 73.3359 31.4062 73.8203 31.5547C74.3125 31.7031 74.7656 31.9453 75.1797 32.2812C75.6016 32.6094 75.9531 33.043 76.2344 33.582C76.5156 34.1133 76.6562 34.7617 76.6562 35.5273V39.8047ZM91.5273 44H83.2656C82.8438 44 82.3828 43.9258 81.8828 43.7773C81.3828 43.6289 80.918 43.3867 80.4883 43.0508C80.0664 42.707 79.7109 42.2656 79.4219 41.7266C79.1406 41.1797 79 40.5117 79 39.7227V35.5977C79 35.3086 79.0312 35.0039 79.0938 34.6836C79.1641 34.3633 79.2695 34.0469 79.4102 33.7344C79.5508 33.4141 79.7305 33.1094 79.9492 32.8203C80.1758 32.5312 80.4453 32.2773 80.7578 32.0586C81.0781 31.8398 81.4453 31.6641 81.8594 31.5312C82.2734 31.3984 82.7422 31.332 83.2656 31.332H91.5273V34.3789H83.2656C82.8672 34.3789 82.5625 34.4805 82.3516 34.6836C82.1484 34.8867 82.0469 35.1992 82.0469 35.6211V39.7227C82.0469 40.1211 82.1523 40.4258 82.3633 40.6367C82.5742 40.8477 82.8828 40.9531 83.2891 40.9531H91.5273V44ZM108.93 44H104.535L98.3945 38.0703C98.0508 37.7578 97.8906 37.3672 97.9141 36.8984C97.9297 36.6797 97.9844 36.4766 98.0781 36.2891C98.1797 36.0938 98.3164 35.9297 98.4883 35.7969L104.055 31.3086H108.93L101.758 37.0859L108.93 44ZM97.1406 44H94.0938V25.9766H97.1406V44Z" fill="url(#paint5_linear_204_4218)"/>
<defs>
<linearGradient id="paint0_linear_204_4218" x1="6" y1="12" x2="129" y2="12" gradientUnits="userSpaceOnUse">
<stop stop-color="#121316"/>
<stop offset="0.528154" stop-color="#2E2843"/>
<stop offset="1" stop-color="#3A3156"/>
</linearGradient>
<linearGradient id="paint1_linear_204_4218" x1="18" y1="27" x2="18" y2="45" gradientUnits="userSpaceOnUse">
<stop stop-color="#624F96"/>
<stop offset="1" stop-color="#8B6DD7"/>
</linearGradient>
<linearGradient id="paint2_linear_204_4218" x1="24.5" y1="33" x2="24.5" y2="41" gradientUnits="userSpaceOnUse">
<stop stop-color="#624F96"/>
<stop offset="1" stop-color="#8B6DD7"/>
</linearGradient>
<linearGradient id="paint3_linear_204_4218" x1="19.5" y1="29" x2="19.5" y2="41" gradientUnits="userSpaceOnUse">
<stop stop-color="#624F96"/>
<stop offset="1" stop-color="#8B6DD7"/>
</linearGradient>
<linearGradient id="paint4_linear_204_4218" x1="14.5" y1="38" x2="14.5" y2="41" gradientUnits="userSpaceOnUse">
<stop stop-color="#624F96"/>
<stop offset="1" stop-color="#8B6DD7"/>
</linearGradient>
<linearGradient id="paint5_linear_204_4218" x1="34" y1="36" x2="110" y2="36" gradientUnits="userSpaceOnUse">
<stop offset="1" stop-color="#8B6DD7"/>
<stop offset="1" stop-color="#624F96"/>
</linearGradient>
</defs>
</svg>
